<svg width="23" height="23" viewBox="0 0 23 23" fill="none" xmlns="http://www.w3.org/2000/svg">
<g clip-path="url(#clip0_49_251)">
<path fill-rule="evenodd" clip-rule="evenodd" d="M10.679 2.19177C10.9493 2.16827 11.2231 2.15625 11.5001 2.15625C11.777 2.15625 12.0508 2.16827 12.3212 2.19177C12.3722 2.1962 12.4766 2.24464 12.5177 2.40196L12.9333 3.99082C13.144 4.79659 13.7227 5.38023 14.3669 5.6993C14.6163 5.82284 14.8568 5.96207 15.0869 6.11574C15.6858 6.51563 16.4813 6.72514 17.285 6.50464L18.8704 6.06963C19.027 6.02666 19.1213 6.09257 19.1509 6.13465C19.465 6.58157 19.7407 7.05703 19.9735 7.55628C19.9948 7.60207 20.0053 7.71639 19.8896 7.83072L18.7183 8.98808C18.1268 9.57261 17.91 10.3645 17.9556 11.0819C17.9644 11.22 17.9688 11.3594 17.9688 11.5C17.9688 11.6406 17.9644 11.78 17.9556 11.9181C17.91 12.6355 18.1268 13.4274 18.7183 14.0119L19.8896 15.1692C20.0053 15.2836 19.9948 15.3979 19.9735 15.4438C19.7407 15.943 19.465 16.4184 19.1509 16.8653C19.1213 16.9074 19.027 16.9733 18.8704 16.9304L17.285 16.4953C16.4813 16.2748 15.6858 16.4844 15.0869 16.8843C14.8568 17.038 14.6163 17.1771 14.3669 17.3007C13.7227 17.6197 13.144 18.2033 12.9333 19.0092L12.5177 20.5981C12.4766 20.7553 12.3722 20.8038 12.3212 20.8082C12.0508 20.8317 11.777 20.8438 11.5001 20.8438C11.2231 20.8438 10.9493 20.8317 10.679 20.8082C10.6279 20.8038 10.5235 20.7553 10.4824 20.5981L10.0668 19.0091C9.85608 18.2033 9.27744 17.6197 8.63328 17.3007C8.38386 17.1771 8.14344 17.038 7.91331 16.8843C7.31442 16.4844 6.51885 16.2748 5.71523 16.4953L4.12968 16.9304C3.97312 16.9733 3.87881 16.9074 3.84923 16.8653C3.53518 16.4184 3.25942 15.943 3.02662 15.4438C3.00526 15.3979 2.99478 15.2836 3.11048 15.1692L4.28187 14.0118C4.87343 13.4273 5.09025 12.6354 5.04459 11.918C5.03582 11.7799 5.03135 11.6406 5.03135 11.5C5.03135 11.3594 5.03582 11.2201 5.04459 11.082C5.09025 10.3646 4.87343 9.57269 4.28187 8.98817L3.11048 7.83072C2.99478 7.7164 3.00526 7.60209 3.02662 7.55629C3.25942 7.05703 3.53518 6.58157 3.84924 6.13465C3.87881 6.09257 3.97312 6.02668 4.12968 6.06963L5.71523 6.50466C6.51885 6.72516 7.31442 6.51564 7.91331 6.11576C8.14344 5.9621 8.38386 5.82287 8.63328 5.69933C9.27743 5.38026 9.85608 4.79662 10.0668 3.99086L10.4824 2.40196C10.5235 2.24464 10.6279 2.1962 10.679 2.19177ZM11.5001 0C11.1607 0 10.8246 0.0147272 10.4922 0.0436188C9.42447 0.136439 8.63931 0.927248 8.3963 1.85636L7.98073 3.44527C7.95563 3.54127 7.86731 3.67247 7.67621 3.76713C7.34327 3.93204 7.02262 4.11775 6.71595 4.32252C6.53916 4.44055 6.3816 4.45156 6.28577 4.42527L4.70023 3.99023C3.77557 3.73652 2.70007 4.01967 2.08503 4.8949C1.69873 5.44463 1.35921 6.02992 1.07239 6.64502C0.619622 7.61599 0.912619 8.69033 1.59494 9.36454L2.76633 10.522C2.83697 10.5918 2.90617 10.7335 2.8927 10.9451C2.88103 11.1287 2.8751 11.3137 2.8751 11.5C2.8751 11.6863 2.88103 11.8713 2.8927 12.0549C2.90617 12.2665 2.83697 12.4082 2.76633 12.478L1.59494 13.6355C0.912618 14.3097 0.619622 15.384 1.07239 16.355C1.35921 16.9701 1.69873 17.5553 2.08503 18.105C2.70007 18.9803 3.77557 19.2635 4.70023 19.0098L6.28577 18.5748C6.3816 18.5485 6.53918 18.5594 6.71595 18.6774C7.02262 18.8823 7.34327 19.068 7.67621 19.2329C7.86731 19.3275 7.95563 19.4587 7.98073 19.5547L8.3963 21.1436C8.63931 22.0728 9.42447 22.8636 10.4922 22.9564C10.8246 22.9853 11.1607 23 11.5001 23C11.8394 23 12.1756 22.9853 12.5079 22.9564C13.5756 22.8636 14.3608 22.0728 14.6038 21.1436L15.0193 19.5547C15.0445 19.4587 15.1328 19.3276 15.324 19.2329C15.6569 19.068 15.9776 18.8823 16.2842 18.6774C16.461 18.5594 16.6186 18.5485 16.7144 18.5748L18.2999 19.0098C19.2246 19.2635 20.3 18.9803 20.9151 18.1052C21.3014 17.5553 21.6409 16.9701 21.9277 16.355C22.3805 15.384 22.0875 14.3097 21.4052 13.6355L20.2339 12.4781C20.1632 12.4083 20.094 12.2666 20.1075 12.055C20.1192 11.8713 20.1251 11.6863 20.1251 11.5C20.1251 11.3137 20.1192 11.1287 20.1075 10.945C20.094 10.7334 20.1632 10.5917 20.2339 10.5219L21.4052 9.36452C22.0875 8.69032 22.3805 7.61598 21.9277 6.645C21.6409 6.02991 21.3014 5.44462 20.9151 4.8949C20.3 4.01965 19.2246 3.73652 18.2999 3.99023L16.7144 4.42524C16.6186 4.45153 16.461 4.44054 16.2842 4.3225C15.9776 4.11772 15.6569 3.93199 15.324 3.76707C15.1328 3.67242 15.0445 3.54122 15.0193 3.44521L14.6038 1.85636C14.3608 0.927245 13.5756 0.136437 12.5079 0.0436175C12.1756 0.0147268 11.8394 0 11.5001 0ZM13.6563 11.5C13.6563 12.6909 12.6909 13.6562 11.5001 13.6562C10.3092 13.6562 9.34381 12.6909 9.34381 11.5C9.34381 10.3091 10.3092 9.34375 11.5001 9.34375C12.6909 9.34375 13.6563 10.3091 13.6563 11.5ZM15.8126 11.5C15.8126 13.8817 13.8818 15.8125 11.5001 15.8125C9.11834 15.8125 7.18756 13.8817 7.18756 11.5C7.18756 9.11828 9.11834 7.1875 11.5001 7.1875C13.8818 7.1875 15.8126 9.11828 15.8126 11.5Z" fill="#24292E"/>
</g>
<defs>
<clipPath id="clip0_49_251">
<rect width="23" height="23" fill="white"/>
</clipPath>
</defs>
</svg>
